<svg xmlns="http://www.w3.org/2000/svg" viewBox="0 0 1500 500">
<defs><linearGradient id="bg" x1="0" x2="1"><stop stop-color="#fff"/><stop offset="1" stop-color="#fff8ed"/></linearGradient></defs>
<rect width="1500" height="500" rx="28" fill="url(#bg)"/>
<g font-family="Arial,Helvetica,sans-serif" font-weight="800"><text x="100" y="185" font-size="78" fill="#102f4b">Success begins with</text><text x="100" y="285" font-size="78" fill="#102f4b">the <tspan fill="#b51f2e">courage to try.</tspan></text></g>
<g transform="translate(880,55)"><rect x="185" y="25" width="400" height="255" rx="12" fill="#26525f"/><rect x="204" y="44" width="362" height="217" fill="#356a75"/><circle cx="535" cy="20" r="40" fill="#fff" stroke="#b4c2cc" stroke-width="6"/><path d="M535 20l0-23M535 20l19 13" stroke="#667d8c" stroke-width="6" stroke-linecap="round"/>
<g opacity=".65"><circle cx="75" cy="305" r="46" fill="#82644d"/><circle cx="165" cy="310" r="44" fill="#33272a"/><circle cx="535" cy="320" r="45" fill="#282432"/></g>
<g transform="translate(255,75)"><circle cx="115" cy="80" r="52" fill="#f2b38d"/><path d="M62 66q59-66 111 5q-12-68-65-65q-55 6-62 70z" fill="#272b36"/><path d="M55 150q70-45 125 0v140H55z" fill="#fff"/><path d="M105 135l18 18l20-18" fill="none" stroke="#183b5b" stroke-width="7"/><path d="M140 155q26-75 22-139" fill="none" stroke="#f2b38d" stroke-width="25" stroke-linecap="round"/><circle cx="166" cy="5" r="13" fill="#f2b38d"/></g>
<g transform="translate(455,105)"><circle cx="55" cy="65" r="43" fill="#f1b88f"/><path d="M22 54q40-52 76 2q-9-53-47-50q-41 4-47 57z" fill="#6d4539"/><path d="M5 122q52-34 101 0v130H5z" fill="#b96a50"/><rect x="34" y="145" width="45" height="72" rx="4" fill="#12395d"/></g>
<rect x="40" y="360" width="585" height="80" rx="12" fill="#d59a4e"/></g>
<path d="M80 360h430" stroke="#e5b44d" stroke-width="8" stroke-linecap="round"/>
</svg>